<svg xmlns="http://www.w3.org/2000/svg" viewBox="0 0 1600 260" preserveAspectRatio="none" fill="none">
  <path d="M0 220H40V164H85V220H126V180H176V220H218V139H263V220H310V177H353V220H405V154H448V220H496V187H530V220H590V144H638V220H701V176H742V220H800V159H848V220H915V179H955V220H1015V138H1061V220H1130V168H1175V220H1230V186H1270V220H1321V150H1367V220H1430V174H1478V220H1530V160H1575V220H1600V260H0Z" fill="#5b95ad"/>
  <path d="M0 260V208H55V192H100V236H165V180H210V245H284V204H335V236H407V196H455V245H519V211H566V231H648V188H689V241H760V204H810V238H864V83L873 69V35H881V8H886V35H894V69L904 83V246H983V199H1024V232H1096V188H1147V241H1210V201H1260V244H1330V194H1380V233H1464V187H1515V242H1600V260Z" fill="#316980"/>
  <path d="M879 83V231M889 83V231" stroke="#bdeaff" stroke-width="3" opacity=".7"/>
  <path d="M0 257H1600" stroke="#d5f5ff" stroke-width="3"/>
</svg>
